<svg width="368" height="71" viewBox="0 0 368 71" fill="none" xmlns="http://www.w3.org/2000/svg">
<path d="M1.38332 55.4687V3.63873H17.4157L29.2626 32.7487H30.6105L42.3156 3.63873H58.6317V55.4687H47.1395V11.2357L48.7711 11.3777L35.0797 44.9607H24.0131L10.2508 11.3777L12.0243 11.2357V55.4687H1.38332ZM69.1807 70.8757V61.2197H77.2678C78.4975 61.2197 79.5379 61.054 80.3892 60.7227C81.2404 60.4387 81.9261 59.9417 82.4464 59.2317C82.9667 58.5217 83.3923 57.5515 83.7233 56.3207L93.3002 16.5607H104.083L93.2292 58.5927C92.4726 61.622 91.4085 64.036 90.037 65.8347C88.7128 67.6335 86.9156 68.9115 84.6455 69.6687C82.4227 70.4735 79.5851 70.8757 76.1328 70.8757H69.1807ZM81.3823 54.6167V45.7417H89.6113V54.6167H81.3823ZM76.7003 54.6167L64.7824 16.5607H76.2037L87.4831 54.6167H76.7003Z" fill="#222222"/>
<path d="M134.467 56.8178C129.785 56.8178 125.766 56.013 122.408 54.4038C119.05 52.747 116.307 50.5935 114.179 47.9428C112.05 45.2448 110.466 42.3575 109.426 39.2808C108.433 36.1568 107.936 33.1275 107.936 30.1928V28.6308C107.936 25.412 108.456 22.2408 109.497 19.1168C110.537 15.9454 112.121 13.0818 114.25 10.5258C116.425 7.96976 119.144 5.93443 122.408 4.41976C125.718 2.85776 129.62 2.07675 134.113 2.07675C138.795 2.07675 142.933 2.95243 146.527 4.70376C150.121 6.45508 152.983 8.89276 155.111 12.0168C157.286 15.0934 158.563 18.7144 158.942 22.8798H147.237C146.906 20.7971 146.149 19.0221 144.967 17.5548C143.784 16.0874 142.247 14.9514 140.355 14.1468C138.511 13.3421 136.43 12.9398 134.113 12.9398C131.795 12.9398 129.738 13.3421 127.941 14.1468C126.144 14.9514 124.631 16.0874 123.401 17.5548C122.219 19.0221 121.296 20.7734 120.634 22.8088C120.019 24.7968 119.712 27.0215 119.712 29.4828C119.712 31.8968 120.019 34.1215 120.634 36.1568C121.296 38.1448 122.242 39.896 123.472 41.4108C124.749 42.878 126.309 44.014 128.154 44.8188C129.998 45.576 132.103 45.9548 134.467 45.9548C138.062 45.9548 141.089 45.079 143.548 43.3278C146.054 41.5765 147.568 39.1625 148.088 36.0858H159.722C159.296 39.8725 158.019 43.3515 155.891 46.5228C153.81 49.6468 150.949 52.1555 147.308 54.0488C143.713 55.8948 139.433 56.8178 134.467 56.8178ZM167.299 55.4688V3.63876H178.72V55.4688H167.299ZM162.688 12.0168V3.63876H178.72V12.0168H162.688ZM191.023 55.4688V16.5608H202.373V55.4688H191.023ZM185.844 24.9388V16.5608H202.373V24.9388H185.844ZM195.421 12.7268C193.293 12.7268 191.709 12.1824 190.668 11.0938C189.675 9.95776 189.179 8.53776 189.179 6.83376C189.179 5.08241 189.675 3.66241 190.668 2.57376C191.709 1.43775 193.293 0.869751 195.421 0.869751C197.549 0.869751 199.11 1.43775 200.103 2.57376C201.144 3.66241 201.664 5.08241 201.664 6.83376C201.664 8.53776 201.144 9.95776 200.103 11.0938C199.11 12.1824 197.549 12.7268 195.421 12.7268ZM230.678 56.8178C227.366 56.8178 224.436 56.2498 221.882 55.1138C219.374 53.9778 217.27 52.463 215.567 50.5698C213.912 48.629 212.635 46.4755 211.736 44.1088C210.885 41.6948 210.459 39.2335 210.459 36.7248V35.3048C210.459 32.7015 210.885 30.2165 211.736 27.8498C212.635 25.4358 213.912 23.282 215.567 21.3888C217.222 19.4954 219.28 18.0044 221.74 16.9158C224.245 15.7798 227.083 15.2118 230.253 15.2118C234.414 15.2118 237.914 16.1584 240.752 18.0518C243.636 19.8978 245.835 22.3355 247.349 25.3648C248.861 28.3468 249.619 31.6128 249.619 35.1628V38.9968H215.212V32.5358H242.738L239.049 35.5178C239.049 33.1985 238.717 31.2105 238.056 29.5538C237.393 27.897 236.4 26.6428 235.077 25.7908C233.8 24.8915 232.19 24.4418 230.253 24.4418C228.266 24.4418 226.586 24.8915 225.216 25.7908C223.844 26.69 222.804 28.0155 222.095 29.7668C221.384 31.4708 221.029 33.577 221.029 36.0858C221.029 38.405 221.36 40.4405 222.024 42.1918C222.684 43.8958 223.726 45.221 225.145 46.1678C226.564 47.1145 228.408 47.5878 230.678 47.5878C232.758 47.5878 234.46 47.1855 235.786 46.3808C237.109 45.576 238.007 44.582 238.482 43.3988H248.91C248.342 46.002 247.229 48.3215 245.576 50.3568C243.92 52.392 241.838 53.9778 239.333 55.1138C236.826 56.2498 233.942 56.8178 230.678 56.8178ZM257.139 55.4688V16.5608H266.148V33.2458H265.51C265.51 29.2698 266.006 25.9565 267 23.3058C268.041 20.6551 269.602 18.6671 271.682 17.3418C273.763 16.0164 276.293 15.3538 279.272 15.3538H279.769C284.309 15.3538 287.763 16.8448 290.126 19.8268C292.538 22.7615 293.744 27.2345 293.744 33.2458V55.4688H282.393V32.6068C282.393 30.524 281.779 28.82 280.549 27.4948C279.321 26.1695 277.665 25.5068 275.583 25.5068C273.455 25.5068 271.73 26.193 270.405 27.5658C269.128 28.891 268.489 30.6425 268.489 32.8198V55.4688H257.139ZM321.08 55.9658C317.156 55.9658 313.986 55.4925 311.574 54.5458C309.162 53.5518 307.389 51.9188 306.254 49.6468C305.167 47.3275 304.622 44.2035 304.622 40.2748V6.05276H315.192V40.7008C315.192 42.5468 315.666 43.9668 316.611 44.9608C317.604 45.9075 319.001 46.3808 320.796 46.3808H326.542V55.9658H321.08ZM298.734 24.8678V16.5608H326.542V24.8678H298.734ZM348.653 56.6758C343.12 56.6758 338.793 55.5398 335.671 53.2678C332.55 50.9958 330.896 47.8008 330.706 43.6828H340.779C340.97 44.9135 341.701 46.0258 342.978 47.0198C344.304 47.9665 346.266 48.4398 348.866 48.4398C350.853 48.4398 352.484 48.1085 353.761 47.4458C355.087 46.7358 355.747 45.7418 355.747 44.4638C355.747 43.3278 355.251 42.4285 354.258 41.7658C353.264 41.0558 351.491 40.5588 348.937 40.2748L345.887 39.9908C341.205 39.5175 337.682 38.2158 335.317 36.0858C333 33.9558 331.841 31.234 331.841 27.9208C331.841 25.1755 332.528 22.8798 333.898 21.0338C335.27 19.1878 337.161 17.7914 339.573 16.8448C342.034 15.8981 344.823 15.4248 347.944 15.4248C352.959 15.4248 357.002 16.5371 360.075 18.7618C363.149 20.9391 364.757 24.1105 364.899 28.2758H354.825C354.637 26.9978 353.974 25.9328 352.839 25.0808C351.704 24.1815 350.026 23.7318 347.802 23.7318C346.053 23.7318 344.659 24.063 343.617 24.7258C342.577 25.3885 342.056 26.2878 342.056 27.4238C342.056 28.5125 342.506 29.3408 343.404 29.9088C344.304 30.4768 345.769 30.879 347.802 31.1158L350.853 31.3998C355.63 31.9205 359.343 33.2458 361.99 35.3758C364.639 37.5058 365.963 40.3695 365.963 43.9668C365.963 46.57 365.253 48.842 363.835 50.7828C362.416 52.676 360.407 54.1435 357.805 55.1848C355.204 56.1788 352.154 56.6758 348.653 56.6758Z" fill="#5061FC"/>
</svg>
